<svg width="853" height="475" viewBox="0 0 853 475" fill="none" xmlns="http://www.w3.org/2000/svg">
<path fill-rule="evenodd" clip-rule="evenodd" d="M178.081 30.0462C116.015 44.9215 16.2408 140.799 16.3941 292.24C16.5481 472.948 214.559 751.372 540.238 751.093C815.08 750.877 882.668 564.512 882.537 438.938C882.295 160.374 707.139 -35.0155 479.357 -34.8007C355.027 -34.6928 244.045 54.0209 244.176 184.897C244.286 306.782 338.582 489.254 562.632 489.071C668.059 488.985 730.082 415.071 730.016 330.369C729.928 247.27 652.636 133.065 539.656 133.173C505.791 133.194 481.399 155.179 481.421 190.286C481.465 234.514 543.597 278.806 620.758 278.741C639.595 278.731 654.645 275.052 662.208 271.341C665.963 276.913 667.862 286.131 667.884 293.488C667.928 335.973 626.466 361.841 562.522 361.905C466.525 361.991 374.105 291.906 374.007 181.1C373.963 114.856 432.319 66.7987 517.021 66.7127C684.613 66.5729 784.464 212.142 784.596 358.001C784.728 488.877 711.475 564.662 560.821 564.791C259.501 565.071 112.502 299.532 178.081 30.0462Z" fill="#4578F8"/>
</svg>
